<svg width="140" height="140" viewBox="0 0 140 140" fill="none" xmlns="http://www.w3.org/2000/svg">
<path d="M52.7031 81.1628L66.1009 95.2879C66.1009 95.2879 70.4403 100.259 71.2453 105.192C71.7635 108.376 69.3023 112.097 66.1009 112.097C62.8995 112.097 60.5493 108.348 60.9934 105.192C61.7337 99.9438 66.2027 95.473 66.2027 95.473L88.0759 66.501" stroke="#D73B50" stroke-width="4" stroke-miterlimit="10" stroke-linecap="round"/>
<path d="M16.2231 22.4414H123.739C127.662 22.4414 130.854 25.6719 130.854 29.6428V46.1374H9.11719V29.6428C9.11719 25.6719 12.3093 22.4414 16.2324 22.4414H16.2231Z" stroke="#D73B50" stroke-width="4" stroke-miterlimit="10" stroke-linecap="round"/>
<path d="M9.14207 46.1279H130.879V125.269C130.879 129.24 127.687 132.47 123.764 132.47H16.2481C12.325 132.47 9.13281 129.24 9.13281 125.269V46.1279H9.14207Z" stroke="#D73B50" stroke-width="4" stroke-miterlimit="10" stroke-linecap="round"/>
<path d="M46.1508 37.1586C46.1508 37.1586 37.4164 35.6868 37.4164 29.9109V15.5915C37.4164 15.5915 37.0463 7.5293 45.6698 7.5293C54.2932 7.5293 54.5245 15.2212 54.5245 15.2212V21.9783" stroke="#D73B50" stroke-width="4" stroke-miterlimit="10" stroke-linecap="round"/>
<path d="M94.1664 37.1586C94.1664 37.1586 85.432 35.6868 85.432 29.9109V15.5915C85.432 15.5915 85.0618 7.5293 93.6853 7.5293C102.309 7.5293 102.54 15.2212 102.54 15.2212V21.9783" stroke="#D73B50" stroke-width="4" stroke-miterlimit="10" stroke-linecap="round"/>
</svg>
